<svg xmlns="http://www.w3.org/2000/svg" fill="none" viewBox="0 0 42 42"><path fill="currentColor" d="M39.741 35.609c-.185 2.236-1.896 3.947-4.132 4.132-2.946.245-7.722.509-14.609.509s-11.663-.264-14.609-.509c-2.236-.185-3.947-1.896-4.132-4.132C2.014 32.663 1.75 27.887 1.75 21s.264-11.663.509-14.609C2.444 4.155 4.155 2.444 6.39 2.26c2.947-.246 7.723-.51 14.61-.51s11.663.264 14.609.509c2.236.185 3.947 1.896 4.132 4.132.245 2.946.509 7.722.509 14.609s-.264 11.663-.509 14.609z"/><path fill="#fff" d="M18.896 33.336c.012.643.275 1.28.885 1.481.313.104.717.183 1.219.183.502 0 .906-.079 1.219-.183.61-.202.873-.838.885-1.481.03-1.703.084-5.652.084-12.336s-.054-10.633-.084-12.336c-.012-.643-.275-1.28-.885-1.481A3.86 3.86 0 0021 7c-.502 0-.906.08-1.219.183-.61.202-.873.838-.885 1.481-.03 1.703-.083 5.652-.083 12.336s.053 10.633.083 12.336zM25.44 28c.02.839.48 1.6 1.313 1.703.235.029.504.047.81.047.305 0 .574-.018.809-.047.833-.103 1.293-.864 1.312-1.703.03-1.295.066-3.572.066-7s-.036-5.705-.066-7c-.019-.839-.48-1.6-1.312-1.703a6.603 6.603 0 00-.81-.047 6.61 6.61 0 00-.809.047c-.833.103-1.293.864-1.312 1.703-.03 1.295-.066 3.572-.066 7s.036 5.705.066 7zm-8.88 0c-.02.839-.48 1.6-1.313 1.703a6.603 6.603 0 01-.81.047 6.61 6.61 0 01-.809-.047c-.833-.103-1.293-.864-1.312-1.703-.03-1.295-.066-3.572-.066-7s.036-5.705.066-7c.019-.839.48-1.6 1.312-1.703.235-.029.504-.047.81-.047.305 0 .574.018.809.047.833.103 1.293.864 1.312 1.703.03 1.295.066 3.572.066 7s-.036 5.705-.066 7zm15.425-4.23c.027.818.628 1.505 1.442 1.572.238.02.478.033.698.033.22 0 .46-.013.698-.033.814-.067 1.415-.754 1.442-1.571A88.31 88.31 0 0036.313 21a87.56 87.56 0 00-.052-2.9c-.026-.756-.552-1.392-1.306-1.446a11.655 11.655 0 00-1.66 0c-.754.054-1.28.69-1.306 1.446a87.573 87.573 0 00-.052 2.9c0 1.032.024 2.018.048 2.77zm-21.97 0c-.027.818-.628 1.505-1.442 1.572a8.51 8.51 0 01-.698.033c-.22 0-.46-.013-.698-.033-.814-.067-1.415-.754-1.442-1.571A86.94 86.94 0 015.687 21c0-1.092.026-2.132.052-2.9.026-.756.552-1.392 1.306-1.446a11.655 11.655 0 011.66 0c.754.054 1.28.69 1.306 1.446.026.768.052 1.808.052 2.9 0 1.032-.024 2.018-.048 2.77z"/></svg>