<svg xmlns="http://www.w3.org/2000/svg" fill="none" viewBox="0 0 42 42"><path fill="currentColor" d="M2.259 35.609c.185 2.236 1.896 3.947 4.132 4.132 2.946.245 7.722.509 14.609.509s11.663-.264 14.609-.509c2.236-.185 3.947-1.896 4.132-4.132.245-2.946.509-7.722.509-14.609s-.264-11.663-.509-14.609c-.185-2.236-1.896-3.947-4.132-4.132C32.663 2.014 27.887 1.75 21 1.75s-11.663.264-14.609.509C4.155 2.444 2.444 4.155 2.26 6.39 2.014 9.337 1.75 14.113 1.75 21s.264 11.663.509 14.609z"/><path fill="#fff" fill-rule="evenodd" d="M17.923 12.172c.153.444.632.697 1.095.627.477-.073 1.15-.141 1.99-.141.833 0 1.498.067 1.97.139.465.07.947-.183 1.1-.628l.146-.424a.833.833 0 01.827-.571c1.796.1 3.577.601 4.515.904.45.146.834.43 1.088.828.995 1.56 3.47 6.177 3.471 13.502 0 .674-.285 1.316-.832 1.71-.908.655-2.587 1.671-5.096 2.451-.59.183-1.236.01-1.567-.512a11.59 11.59 0 01-.695-1.3.966.966 0 00-1.119-.521c-1 .26-2.263.453-3.808.453-1.55 0-2.818-.194-3.823-.456a.966.966 0 00-1.119.52c-.191.414-.43.885-.696 1.304-.33.522-.977.695-1.567.512-2.51-.78-4.188-1.796-5.096-2.45-.547-.395-.832-1.037-.832-1.711 0-7.398 2.525-12.033 3.5-13.548a1.94 1.94 0 011-.781c.88-.307 2.602-.815 4.574-.908a.84.84 0 01.827.574l.147.427zm1.436 9.238c0 1.586-1.101 2.87-2.46 2.87-1.36 0-2.462-1.284-2.462-2.87s1.102-2.871 2.461-2.871c1.36 0 2.461 1.285 2.461 2.87zm3.282 0c0 1.586 1.101 2.87 2.46 2.87 1.36 0 2.462-1.284 2.462-2.87s-1.102-2.871-2.461-2.871c-1.36 0-2.461 1.285-2.461 2.87z" clip-rule="evenodd"/></svg>
