<svg xmlns="http://www.w3.org/2000/svg" fill="none" viewBox="0 0 42 42"><path fill="currentColor" d="M21 1.75c10.632 0 19.25 8.618 19.25 19.25S31.632 40.25 21 40.25 1.75 31.632 1.75 21 10.368 1.75 21 1.75z"/><path fill="#f4f4f4" fill-rule="evenodd" d="M30.296 10.532A13.947 13.947 0 0021 7c-1.67 0-3.272.293-4.757.83 2.899 2.04 5.211 4.525 6.951 7.306 2.626-1.16 5.039-2.7 7.102-4.604zm1.966 2.15c-2.044 2.273-4.59 4.111-7.457 5.462a26.34 26.34 0 011.248 3.358c3.007-.297 6.04-.094 8.902.626a13.938 13.938 0 00-2.694-9.446zm2.217 12.114a27.52 27.52 0 00-7.71-.26c.525 2.962.583 6.046.186 9.138-.981.462-2.025.813-3.115 1.037.423-3.352.3-6.587-.335-9.623A26.904 26.904 0 0011.54 31.32a14.08 14.08 0 01-1.81-2.014c3.464-3.707 8.07-6.152 12.947-7.257a25.343 25.343 0 00-1.063-2.643c-4.514 1.465-9.575 1.842-14.6.974.042-.968.182-1.91.411-2.817 4.213.43 8.511.01 12.487-1.207-1.74-2.663-4.003-5.015-6.745-6.961A13.986 13.986 0 007 21c0 7.732 6.268 14 14 14 6.416 0 11.824-4.316 13.48-10.204z" clip-rule="evenodd"/></svg>
