<svg xmlns="http://www.w3.org/2000/svg" fill="none" viewBox="0 0 42 42"><path fill="currentColor" d="M2.16 35.933c.214 2.203 1.97 3.81 4.18 3.944 2.942.179 7.732.373 14.66.373s11.718-.194 14.66-.373c2.21-.134 3.966-1.741 4.18-3.944.213-2.167.41-5.35.41-9.683 0-5.396-.306-9.009-.565-11.097-.178-1.436-1.054-2.65-2.321-3.348C33.507 9.68 24.99 5.25 21 5.25c-3.99 0-12.507 4.43-16.364 6.555-1.267.698-2.143 1.912-2.321 3.348-.259 2.088-.565 5.701-.565 11.097 0 4.333.198 7.516.41 9.683z"/><path fill="#f4f4f4" d="M10.678 1.937c-2.29.097-4.143 1.763-4.336 4.048a64.316 64.316 0 00-.217 5.39c0 3.235.218 5.715.412 7.281.153 1.233.907 2.282 2.001 2.87C11.54 23.138 17.758 26.25 21 26.25c3.242 0 9.46-3.112 12.462-4.724 1.094-.588 1.848-1.637 2.001-2.87.194-1.566.412-4.046.412-7.281 0-2.144-.096-3.956-.217-5.39-.193-2.285-2.045-3.951-4.336-4.048C29.018 1.841 25.626 1.75 21 1.75c-4.626 0-8.018.09-10.322.187z"/><path fill="currentColor" d="M26.775 18.293c.666-.025 1.186-.476 1.215-1.142a12.516 12.516 0 000-1.058c-.029-.66-.543-1.106-1.203-1.132-1.03-.041-2.996-.086-6.662-.086-3.652 0-5.616.043-6.65.082-.666.025-1.186.476-1.214 1.142a12.516 12.516 0 000 1.052c.028.666.548 1.117 1.214 1.142 1.034.04 2.998.082 6.65.082s5.616-.043 6.65-.082zM21.539 11.313c.683-.03 1.188-.518 1.205-1.202a18.82 18.82 0 000-.98c-.018-.677-.515-1.16-1.191-1.19-.757-.035-2.008-.066-4.053-.066-2.032 0-3.28.03-4.039.062-.683.03-1.188.518-1.205 1.202a18.82 18.82 0 000 .972c.017.684.522 1.172 1.205 1.202.758.032 2.007.062 4.039.062 2.032 0 3.28-.03 4.039-.062z"/></svg>
