<svg xmlns="http://www.w3.org/2000/svg" fill="none" viewBox="0 0 42 42"><path fill="currentColor" d="M2.259 35.609c.185 2.236 1.896 3.947 4.132 4.132 2.946.245 7.722.509 14.609.509s11.663-.264 14.609-.509c2.236-.185 3.947-1.896 4.132-4.132.245-2.946.509-7.722.509-14.609s-.264-11.663-.509-14.609c-.185-2.236-1.896-3.947-4.132-4.132C32.663 2.014 27.887 1.75 21 1.75s-11.663.264-14.609.509C4.155 2.444 2.444 4.155 2.26 6.39 2.014 9.337 1.75 14.113 1.75 21s.264 11.663.509 14.609z"/><path fill="#f4f4f4" fill-rule="evenodd" d="M25.764 40.205V27.086h4.81c.779 0 1.48-.514 1.592-1.285.188-1.283.108-2.45-.013-3.278-.111-.757-.785-1.257-1.55-1.257h-4.84c0-5.023.723-5.723 4.79-5.81.788-.016 1.495-.537 1.608-1.317.192-1.32.116-2.473-.004-3.283-.11-.746-.778-1.233-1.531-1.226-7.199.066-11.298.968-11.298 11.636h-3.722c-.731 0-1.38.46-1.49 1.183-.119.783-.19 1.919.008 3.3.114.793.826 1.337 1.627 1.337h3.577v13.159a259.394 259.394 0 006.436-.04z" clip-rule="evenodd"/></svg>
