<svg xmlns="http://www.w3.org/2000/svg" fill="none" viewBox="0 0 42 42"><path fill="currentColor" d="M2.259 35.609c.185 2.236 1.896 3.947 4.132 4.132 2.946.245 7.722.509 14.609.509s11.663-.264 14.609-.509c2.236-.185 3.947-1.896 4.132-4.132.245-2.946.509-7.722.509-14.609s-.264-11.663-.509-14.609c-.185-2.236-1.896-3.947-4.132-4.132C32.663 2.014 27.887 1.75 21 1.75s-11.663.264-14.609.509C4.155 2.444 2.444 4.155 2.26 6.39 2.014 9.337 1.75 14.113 1.75 21s.264 11.663.509 14.609z"/><path fill="#f4f4f4" fill-rule="evenodd" d="M12.303 7.427c-3 .353-4.96 2.679-5.124 5.695C7.077 15 7 17.56 7 21s.077 6 .18 7.878c.163 3.016 2.122 5.342 5.123 5.695C14.33 34.812 17.149 35 21 35c3.85 0 6.67-.188 8.697-.427 3-.353 4.96-2.679 5.124-5.695C34.923 27 35 24.44 35 21s-.077-6-.18-7.878c-.163-3.016-2.122-5.342-5.123-5.695C27.67 7.188 24.851 7 21 7c-3.85 0-6.67.188-8.697.427zM31.5 12.25a1.75 1.75 0 11-3.5 0 1.75 1.75 0 013.5 0zM21 28.875a7.875 7.875 0 100-15.75 7.875 7.875 0 000 15.75zm0-3.5a4.375 4.375 0 100-8.75 4.375 4.375 0 000 8.75z" clip-rule="evenodd"/></svg>
