<svg xmlns="http://www.w3.org/2000/svg" fill="none" viewBox="0 0 42 42"><path fill="currentColor" fill-rule="evenodd" d="M11.813 1.75c3.96 0 6.918 2.245 8.274 5.567.822-.792 1.577-1.512 2.269-2.164 4.09-3.858 9.826-4.205 13.831-.261 4.005 3.943 3.653 9.592-.265 13.62-.733.752-1.548 1.58-2.455 2.491.907.91 1.722 1.74 2.455 2.493 3.918 4.026 4.27 9.675.265 13.619-4.005 3.943-9.742 3.597-13.831-.261a294.773 294.773 0 01-2.27-2.166c-1.357 3.32-4.316 5.562-8.274 5.562-5.42 0-8.965-4.206-9.09-9.624A421.392 421.392 0 012.625 21c0-3.964.04-7.124.097-9.626.125-5.418 3.67-9.624 9.09-9.624z" clip-rule="evenodd"/></svg>
