<svg xmlns="http://www.w3.org/2000/svg" fill="none" viewBox="0 0 42 42">


<g transform="matrix(0.875,0,0,0.875,0,0)"><path fill="#f4f4f4" d="M24 2C11.8497 2 2 11.8497 2 24C1.99999 36.1503 11.8497 46 24 46C36.1503 46 46 36.1503 46 24C46 11.8497 36.1503 2 24 2Z"></path><path fill="currentColor" fill-rule="evenodd" d="M20.3887 13.9307C21.8851 12.8414 23.6371 13.6554 23.7656 15.5018C23.8314 16.4488 23.8917 17.6309 23.9346 19.0971C23.9867 19.0956 24.0392 19.0961 24.0922 19.0987C29.6228 19.3699 33.2632 19.6314 35.3367 19.8023C36.6889 19.9137 37.8089 20.7727 37.9297 22.124C37.972 22.5978 37.9997 23.1621 37.9997 23.8276C37.9997 24.4933 37.972 25.0769 37.9296 25.58C37.8028 27.0856 36.5544 28.0997 35.0484 28.2213C32.933 28.3919 29.3749 28.642 24.0922 28.9011C24.0392 28.9037 23.9867 28.9042 23.9346 28.9027C23.8917 30.3683 23.8315 31.55 23.7656 32.4969C23.6372 34.3437 21.8847 35.1577 20.388 34.0681C19.2575 33.2451 17.7825 32.104 15.9291 30.5453C13.399 28.4175 11.9265 26.8084 11.0818 25.7181C10.2722 24.6731 10.2722 23.3266 11.0819 22.2817C11.9267 21.1915 13.3992 19.5825 15.9291 17.4544C17.7829 15.8951 19.2581 14.7538 20.3887 13.9307Z" clip-rule="evenodd"></path></g></svg>
