<svg xmlns="http://www.w3.org/2000/svg" fill="none" viewBox="0 0 42 42"><g fill-rule="evenodd" clip-rule="evenodd"><path fill="#f4f4f4" d="M4.742 30.643c-1.482-.292-2.466-1.478-2.61-2.981-.185-1.962-.382-5.374-.382-11.037 0-5.663.197-9.075.383-11.037.143-1.503 1.127-2.689 2.609-2.98 2.06-.406 5.734-.858 11.883-.858 6.149 0 9.823.452 11.883.858 1.482.291 2.466 1.477 2.61 2.98.075.796-.62 1.44-1.418 1.417a14.406 14.406 0 00-10.611 4.226L11.23 19.09A14.402 14.402 0 007 29.343c.001.851-.717 1.572-1.557 1.429a27.618 27.618 0 01-.702-.128z"/><path fill="currentColor" d="M36.806 30.571c4.592-4.591 4.592-12.036 0-16.627-4.591-4.592-12.036-4.592-16.627 0l-.794.794c-.787.787-.988 1.932-.26 2.774.218.251.48.534.794.848.315.315.597.576.848.793.842.73 1.988.529 2.775-.259l.794-.793a5.879 5.879 0 018.313 8.313l-.793.794c-.788.787-.988 1.933-.26 2.775a17.449 17.449 0 001.642 1.641c.842.729 1.987.528 2.774-.259l.794-.794zM13.944 20.18c-4.592 4.591-4.592 12.036 0 16.627 4.591 4.592 12.036 4.592 16.627 0l.794-.794c.787-.787.988-1.932.26-2.774-.218-.251-.48-.534-.794-.848a16.203 16.203 0 00-.848-.793c-.842-.73-1.988-.529-2.775.259l-.794.793a5.879 5.879 0 01-8.313-8.313l.793-.794c.788-.787.988-1.933.26-2.775-.218-.25-.48-.534-.794-.848a16.203 16.203 0 00-.848-.793c-.842-.729-1.987-.528-2.774.259l-.794.794zm6.646 6.153a2.707 2.707 0 003.828 3.828l5.742-5.742a2.707 2.707 0 00-3.828-3.828l-5.742 5.742z"/></g></svg>