<svg xmlns="http://www.w3.org/2000/svg" fill="none" viewBox="0 0 42 42"><g transform="scale(.875)"><path fill="currentColor" d="M8.776 45.88c1.156-.14 1.852-1.094 1.915-2.257.132-2.435.309-7.89.309-19.623 0-11.734-.177-17.188-.31-19.623-.062-1.163-.758-2.117-1.914-2.257C8.198 2.05 7.452 2 6.5 2c-.952 0-1.698.05-2.276.12-1.156.14-1.852 1.094-1.915 2.257C2.177 6.812 2 12.267 2 24c0 11.734.177 17.188.31 19.623.062 1.163.758 2.117 1.914 2.257.578.07 1.324.12 2.276.12.952 0 1.698-.05 2.276-.12z"/><circle cx="30" cy="18" r="16" fill="#333"/></g></svg>
