<svg xmlns="http://www.w3.org/2000/svg" fill="none" viewBox="0 0 42 42"><g transform="scale(.875)"><path fill="currentColor" fill-rule="evenodd" d="M26.988 4.724a42.557 42.557 0 019.258 6.241 35.913 35.913 0 012.936 2.913 23.85 23.85 0 01.947 1.129l.054.07.015.02.005.008.002.002h.001c0 .001 0 .002-1.206.893l-1.206.892-.006-.008a20.764 20.764 0 00-.845-1.01 32.937 32.937 0 00-2.69-2.666 39.55 39.55 0 00-8.521-5.758c-.49.346-1.087.55-1.732.55a2.986 2.986 0 01-1.732-.55 39.546 39.546 0 00-8.522 5.758 32.937 32.937 0 00-2.689 2.667 20.863 20.863 0 00-.81.964 2.62 2.62 0 00-.035.045l-.006.008L9 16l-1.206-.892v-.001l.003-.002.005-.007.016-.021a9.47 9.47 0 01.25-.319c.17-.211.42-.51.75-.88a35.933 35.933 0 012.936-2.913 42.556 42.556 0 019.258-6.24 3 3 0 015.976-.001z" clip-rule="evenodd"/><path fill="#f4f4f4" d="M2.468 41.067c.245 2.517 2.252 4.353 4.777 4.507C10.607 45.778 16.083 46 24 46s13.392-.222 16.755-.426c2.525-.154 4.531-1.99 4.777-4.507C45.774 38.59 46 34.952 46 30c0-4.951-.226-8.59-.468-11.067-.245-2.517-2.252-4.353-4.777-4.507C37.392 14.222 31.917 14 24 14s-13.393.222-16.755.426c-2.525.154-4.532 1.99-4.777 4.507C2.226 21.41 2 25.05 2 30c0 4.952.226 8.59.468 11.067z"/><path fill="currentColor" fill-rule="evenodd" d="M7.245 45.574c-2.525-.154-4.532-1.99-4.778-4.507a87.084 87.084 0 01-.256-3.323c5.369-5.173 8.95-7.852 11.054-9.206 1.452-.933 3.212-.771 4.554.315 1.748 1.413 4.679 3.964 9.245 8.422 3.264-2.89 5.608-4.6 7.154-5.594 1.453-.934 3.212-.771 4.554.314 1.441 1.166 3.685 3.103 6.986 6.244a84.929 84.929 0 01-.226 2.828c-.246 2.517-2.252 4.353-4.777 4.507C37.392 45.778 31.917 46 24 46c-7.918 0-13.393-.222-16.755-.426z" clip-rule="evenodd"/><circle cx="33.428" cy="22.951" r="3.143" fill="currentColor"/></g></svg>