<svg xmlns="http://www.w3.org/2000/svg" fill="none" viewBox="0 0 42 42"><path fill="currentColor" d="M11.515 24.363c.508-.974.685-2.108.746-2.78.035-.38-.093-.75-.353-1.029l-.014-.015c-.783-.839-1.88-2.014-1.467-5.695.401-3.578 4.311-8.844 10.979-8.637 6.667.206 9.676 4.682 8.63 11.441-.903 5.835-4.94 8.418-7.34 7.707-2.934-.868-2.756-2.564-2.4-3.845 3.264-8.46 2.018-10.435-.534-11.024-1.307-.302-4-.257-5.334 3.588-.8 2.307-.316 4.975.267 5.897 0 0-1.272 4.147-3.153 12.602-.031.143-.058.29-.074.435-.099.884-.405 4.285.325 7.13.135.524.72.717 1.122.354.888-.802 2.363-2.458 3.707-5.468.1-.224.18-.456.244-.693.303-1.129 1.25-4.672 1.664-6.477 2.667 4.358 15.436 4.242 17.898-9.41 2.344-12.992-8.665-17.01-15.6-16.675-8.166.394-14.593 4.45-15.468 12.305-.751 6.74 2.494 9.865 5.322 10.645a.718.718 0 00.833-.356z"/></svg>
