<svg xmlns="http://www.w3.org/2000/svg" fill="none" viewBox="0 0 42 42"><path fill="currentColor" fill-rule="evenodd" d="M6.374 32.833C4.148 32.68 2.4 31.03 2.196 28.809c-.225-2.44-.446-6.15-.446-11.309 0-5.158.221-8.869.446-11.309.205-2.221 1.952-3.872 4.178-4.024 2.945-.2 7.725-.417 14.626-.417 6.9 0 11.681.217 14.626.417 2.226.152 3.973 1.803 4.178 4.024.225 2.44.446 6.15.446 11.309 0 5.158-.221 8.869-.446 11.309-.205 2.221-1.952 3.872-4.178 4.024-2.587.176-6.592.365-12.207.408l-7.38 6.57c-1.129 1.005-2.914.204-2.914-1.307v-5.36a170.69 170.69 0 01-6.751-.311z" clip-rule="evenodd"/><path fill="#fff" d="M24.713 10.538c-1.103.04-1.907.869-1.938 1.973a71.65 71.65 0 00-.025 1.99c0 .746.009 1.36.021 1.862.03 1.165.909 2.032 2.073 2.059.588.013 1.336.022 2.281.022 0 2.093-.822 3.284-2.566 4.342-.507.307-.731.942-.402 1.435.182.274.404.568.654.824.327.334.821.403 1.266.259 2.9-.943 5.423-3.145 5.423-6.86V14.5c0-.81-.01-1.466-.025-1.989-.03-1.104-.835-1.932-1.938-1.973a66.456 66.456 0 00-2.412-.038c-1.017 0-1.806.016-2.412.038zm-12.249 0c-1.103.04-1.909.875-1.94 1.988-.014.52-.024 1.17-.024 1.974 0 .74.008 1.349.021 1.847.03 1.174.909 2.047 2.073 2.074.588.013 1.336.023 2.281.023 0 2.09-.82 3.28-2.558 4.336-.51.31-.736.954-.403 1.451.182.271.402.562.65.815.325.333.816.402 1.258.258 2.902-.942 5.428-3.143 5.428-6.86V14.5c0-.803-.01-1.454-.024-1.974-.031-1.113-.837-1.947-1.94-1.988a66.413 66.413 0 00-2.411-.038c-1.016 0-1.805.016-2.411.038z"/></svg>