<svg xmlns="http://www.w3.org/2000/svg" fill="none" viewBox="0 0 42 42">


<g transform="matrix(0.875,0,0,0.875,0,0)"><path fill="#f4f4f4" d="M24 2C36.1503 2 46 11.8497 46 24C46 36.1503 36.1503 46 24 46C11.8497 46 2 36.1503 2 24C2 11.8497 11.8497 2 24 2Z"></path><path fill="currentColor" fill-rule="evenodd" d="M27.611 13.9307C26.1146 12.8414 24.3626 13.6554 24.2342 15.5018C24.1683 16.4488 24.108 17.6309 24.0651 19.0971C24.013 19.0956 23.9605 19.0961 23.9075 19.0987C18.3769 19.3699 14.7365 19.6314 12.663 19.8023C11.3108 19.9137 10.1909 20.7727 10.0701 22.124C10.0277 22.5978 10 23.1621 10 23.8276C10 24.4933 10.0277 25.0769 10.0701 25.58C10.1969 27.0856 11.4453 28.0997 12.9513 28.2213C15.0667 28.3919 18.6248 28.642 23.9075 28.9011C23.9605 28.9037 24.013 28.9042 24.0651 28.9027C24.108 30.3683 24.1683 31.55 24.2341 32.4969C24.3625 34.3437 26.115 35.1577 27.6117 34.0681C28.7422 33.2451 30.2172 32.104 32.0706 30.5453C34.6007 28.4175 36.0732 26.8084 36.918 25.7181C37.7276 24.6731 37.7275 23.3266 36.9178 22.2817C36.073 21.1915 34.6005 19.5825 32.0706 17.4544C30.2169 15.8951 28.7416 14.7538 27.611 13.9307Z" clip-rule="evenodd"></path></g></svg>
