<svg xmlns="http://www.w3.org/2000/svg" fill="none" viewBox="0 0 42 42"><path fill="currentColor" fill-rule="evenodd" d="M4.056 3.243C4.371 2.24 5.37 1.748 6.42 1.748h1.903c17.635 0 31.93 14.296 31.93 31.93v2.113c0 .929-.398 1.818-1.276 2.117-.74.251-1.847.478-3.431.478-1.585 0-2.692-.227-3.432-.478-.878-.299-1.276-1.188-1.276-2.117v-2.113c0-12.434-8.935-22.514-21.37-22.514H6.42c-1.05 0-2.048-.492-2.363-1.495-.236-.755-.441-1.813-.441-3.213 0-1.4.205-2.458.441-3.213zm.009 13.67c.31-.964 1.276-1.425 2.288-1.425h.781c10.703 0 19.379 8.676 19.379 19.378v.926c0 .928-.397 1.818-1.275 2.118-.735.25-1.829.476-3.39.476-1.561 0-2.655-.225-3.39-.476-.878-.3-1.275-1.19-1.275-2.118v-.926c0-5.55-4.499-10.049-10.049-10.049h-.781c-1.012 0-1.978-.46-2.288-1.424-.24-.745-.45-1.806-.45-3.24 0-1.435.21-2.496.45-3.24zM6.916 40.25a5.165 5.165 0 100-10.33 5.165 5.165 0 000 10.33z" clip-rule="evenodd"/></svg>