<svg xmlns="http://www.w3.org/2000/svg" fill="none" viewBox="0 0 42 42"><path fill="currentColor" d="M2.259 35.609c.185 2.236 1.896 3.947 4.132 4.132 2.946.245 7.722.509 14.609.509s11.663-.264 14.609-.509c2.236-.185 3.947-1.896 4.132-4.132.245-2.946.509-7.722.509-14.609s-.264-11.663-.509-14.609c-.185-2.236-1.896-3.947-4.132-4.132C32.663 2.014 27.887 1.75 21 1.75s-11.663.264-14.609.509C4.155 2.444 2.444 4.155 2.26 6.39 2.014 9.337 1.75 14.113 1.75 21s.264 11.663.509 14.609z"/><path fill="#f4f4f4" fill-rule="evenodd" d="M29.658 16.52c-.051-5.035-3.622-8.645-8.658-8.645s-8.607 3.61-8.658 8.646c-.006.53-.009 1.092-.009 1.687v.038a32.615 32.615 0 00-2.367-.755c-.698-.196-1.479-.256-2.028.216a2.563 2.563 0 00-.771 1.204c-.234.743.094 1.519.634 2.08.613.64 1.598 1.587 3.017 2.74.495.403.793 1.067.457 1.61-.557.899-1.613 1.357-2.536 1.757C7.8 27.505 7 27.852 7 28.542c0 1.038 1.113 1.393 2.065 1.697.577.184 1.095.35 1.268.637.166.273.257.604.351.95.169.614.35 1.272.983 1.716.63.442 1.54.32 2.635.174.623-.083 1.306-.174 2.031-.174.929 0 1.426.503 1.96 1.041.615.622 1.278 1.292 2.707 1.292 1.43 0 2.092-.67 2.708-1.292.533-.538 1.03-1.04 1.959-1.04.725 0 1.408.09 2.03.173 1.096.147 2.006.268 2.636-.174.634-.444.814-1.102.983-1.717.094-.345.185-.676.35-.95.174-.286.692-.452 1.27-.636.95-.304 2.064-.66 2.064-1.697 0-.69-.8-1.037-1.739-1.444-.923-.4-1.979-.858-2.536-1.758-.336-.542-.038-1.206.457-1.608 1.42-1.154 2.404-2.102 3.017-2.74.54-.562.868-1.338.634-2.081a2.563 2.563 0 00-.77-1.204c-.55-.472-1.33-.412-2.029-.216-.662.186-1.542.45-2.367.755v-.038c0-.595-.003-1.157-.009-1.687z" clip-rule="evenodd"/></svg>
