<svg xmlns="http://www.w3.org/2000/svg" fill="none" viewBox="0 0 42 42"><path fill="currentColor" d="M2.259 35.609c.185 2.236 1.896 3.947 4.132 4.132 2.946.245 7.722.509 14.609.509s11.663-.264 14.609-.509c2.236-.185 3.947-1.896 4.132-4.132.245-2.946.509-7.722.509-14.609s-.264-11.663-.509-14.609c-.185-2.236-1.896-3.947-4.132-4.132C32.663 2.014 27.887 1.75 21 1.75s-11.663.264-14.609.509C4.155 2.444 2.444 4.155 2.26 6.39 2.014 9.337 1.75 14.113 1.75 21s.264 11.663.509 14.609z"/><path fill="#f4f4f4" fill-rule="evenodd" d="M8.912 18.628c-1.052.642-.859 2.007.274 2.493l5.232 2.242c.299.128.644.08.896-.125l.174-.141c4.222-3.43 11.29-9.171 11.716-8.745.345.345-2.63 3.782-5.743 7.378-1.036 1.196-2.087 2.41-3.037 3.534a.871.871 0 00.051 1.178l6.615 6.615c.68.68 1.726.623 2.108-.26 1.877-4.34 3.958-15.776 4.364-21.572.068-.964-.712-1.733-1.662-1.556-5.545 1.036-16.272 6.077-20.988 8.959z" clip-rule="evenodd"/></svg>
