<svg xmlns="http://www.w3.org/2000/svg" fill="none" viewBox="0 0 42 42"><path fill="currentColor" d="M38.041 7.845c-.182-2.112-1.774-3.704-3.886-3.886C31.547 3.733 27.322 3.5 21 3.5c-6.322 0-10.547.233-13.155.459-2.112.182-3.704 1.774-3.886 3.886C3.733 10.453 3.5 14.678 3.5 21c0 6.322.233 10.547.459 13.155.182 2.112 1.774 3.704 3.886 3.886 2.608.226 6.833.459 13.155.459 6.322 0 10.547-.233 13.155-.459 2.112-.182 3.704-1.774 3.886-3.886.226-2.608.459-6.833.459-13.155 0-6.322-.233-10.547-.459-13.155z"/><path fill="#fff" d="M8.807 10.188c.09-.851.82-1.342 1.676-1.36C12.057 8.792 15.208 8.75 21 8.75c5.791 0 8.942.043 10.516.077.856.019 1.587.51 1.677 1.361.034.327.057.725.057 1.206 0 .468-.022.858-.055 1.18-.088.866-.834 1.361-1.705 1.374C29.908 13.97 26.76 14 21 14s-8.908-.03-10.49-.052c-.87-.013-1.617-.508-1.705-1.374a11.644 11.644 0 01-.055-1.18c0-.482.023-.88.057-1.206zm-.017 7.986c.072-.908.83-1.458 1.741-1.479 1.433-.032 4.094-.07 8.72-.07 4.624 0 7.284.038 8.717.07.911.02 1.67.571 1.742 1.48.025.304.04.666.04 1.094 0 .413-.014.765-.037 1.063-.07.925-.85 1.482-1.777 1.496-1.44.022-4.096.047-8.686.047s-7.246-.025-8.686-.047c-.928-.014-1.706-.57-1.777-1.495-.023-.299-.037-.65-.037-1.064 0-.428.015-.79.04-1.095z"/></svg>