<svg xmlns="http://www.w3.org/2000/svg" fill="none" viewBox="0 0 42 42"><path fill="currentColor" d="M24.952 3.389c-.088-.64-.447-1.23-1.073-1.393a7.727 7.727 0 00-1.938-.246c-.778 0-1.44.116-1.938.246-.626.162-.998.75-1.012 1.396l-.563 26.196c0 1.963-1.573 3.554-3.513 3.554s-3.514-1.59-3.514-3.554c0-2.065 1.5-3.219 3.267-3.49.462-.072.85-.43.87-.898l.25-5.358c.022-.498-.377-.918-.875-.883-5.67.394-10.538 4.436-10.538 10.63 0 5.888 4.719 10.661 10.54 10.661 5.82 0 10.54-4.773 10.54-10.662l-.305-14.166c2.648 2.044 6.88 3.28 10.794 3.477.7.035 1.372-.283 1.536-.965.083-.347.145-.8.145-1.376 0-.577-.062-1.03-.145-1.376-.164-.683-.838-.976-1.534-1.058-5.297-.617-10.285-5.588-10.994-10.735z"/></svg>
