<svg xmlns="http://www.w3.org/2000/svg" fill="none" viewBox="0 0 42 42"><path fill="currentColor" d="M30.744 33.831c4.687-4.275 7.768-8.87 8.846-10.595.29-.463.445-.989.47-1.535.068-1.438.19-4.705.19-9.445 0-2.984-.048-5.385-.101-7.113a3.35 3.35 0 00-3.287-3.27c-2.455-.06-7.422-.123-13.84-.123-7.764 0-12.124.091-14.3.16a3.45 3.45 0 00-2.8 1.613l-3.42 5.379a3.536 3.536 0 00-.554 1.78A369.46 369.46 0 001.75 22.53c0 3.597.061 6.7.12 8.87a3.503 3.503 0 003.382 3.406c1.72.064 2.762.086 3.283.094a.453.453 0 01.445.42l.247 3.341c.091 1.24 1.376 1.994 2.445 1.362 2.992-1.769 5.92-4.178 6.78-4.904a.914.914 0 01.586-.216c.914-.006 4.597-.037 9.5-.191a3.428 3.428 0 002.206-.88z"/><path fill="#f4f4f4" fill-rule="evenodd" d="M35.646 21.313c-.666 1.003-2.098 2.976-4.298 5.058-.561.532-1.3.831-2.072.87a161.7 161.7 0 01-6.415.165.945.945 0 00-.814.5c-.392.715-1.22 2.063-2.39 3.123-.474.43-1.173.094-1.24-.542l-.241-2.295a.885.885 0 00-.869-.792c-.927-.013-2.732-.048-5.721-.145A2.552 2.552 0 019.101 24.8c-.062-1.808-.129-4.626-.129-8.383 0-3.801.069-6.642.132-8.446a2.483 2.483 0 012.416-2.407c2.044-.065 5.528-.139 10.783-.139 5.461 0 9.241.08 11.442.146a2.52 2.52 0 012.45 2.424c.059 1.403.117 3.276.117 5.148 0 2.685-.12 5.37-.188 6.672a2.979 2.979 0 01-.478 1.5zm-14.34-8.98c-.017-.456-.242-.871-.69-.964a5.559 5.559 0 00-1.121-.098c-.49 0-.854.042-1.121.098-.448.093-.674.508-.69.965a106.246 106.246 0 000 7.229c.016.456.242.872.69.964a5.55 5.55 0 001.12.099c.49 0 .854-.043 1.122-.099.448-.092.673-.508.69-.964a105.959 105.959 0 000-7.23zm8.42 0c-.017-.456-.242-.871-.69-.964a5.558 5.558 0 00-1.121-.098c-.49 0-.854.042-1.121.098-.448.093-.674.508-.69.965a105.96 105.96 0 000 7.229c.016.456.242.872.69.964.267.056.632.099 1.12.099a5.55 5.55 0 001.122-.099c.448-.092.673-.508.69-.964a106.245 106.245 0 000-7.23z" clip-rule="evenodd"/></svg>
