<svg xmlns="http://www.w3.org/2000/svg" fill="none" viewBox="0 0 42 42"><path fill="currentColor" d="M2.259 35.609c.185 2.236 1.896 3.947 4.132 4.132 2.946.245 7.722.509 14.609.509s11.663-.264 14.609-.509c2.236-.185 3.947-1.896 4.132-4.132.245-2.946.509-7.722.509-14.609s-.264-11.663-.509-14.609c-.185-2.236-1.896-3.947-4.132-4.132C32.663 2.014 27.887 1.75 21 1.75s-11.663.264-14.609.509C4.155 2.444 2.444 4.155 2.26 6.39c-.246 2.947-.51 7.723-.51 14.61s.264 11.663.509 14.609z"/><path fill="#fff" d="M23.043 10.577c-2.94 2.083-2.461 5.058-2.28 6.057-5.08-.317-8.532-3.166-10.113-4.801-.468-.484-1.322-.367-1.459.292-.969 4.672 3.457 8.817 3.457 8.817-.743 0-2.144-.236-3.118-.419-.546-.103-1.053.32-.9.855.817 2.877 4.641 5.916 7.169 5.844-1.324 1.325-2.935 1.981-4.357 2.298-.895.199-1.262 1.583-.407 1.913 9.704 3.744 20.99-4.086 20.395-16.195l1.73-2.595a.875.875 0 00-.771-1.36l-2.41.121c-1.165-1.452-4.27-2.715-6.936-.827z"/></svg>