<svg xmlns="http://www.w3.org/2000/svg" fill="none" viewBox="0 0 42 42"><path fill="currentColor" d="M2.196 9.691C2.401 7.47 4.148 5.82 6.374 5.667c2.945-.2 7.725-.417 14.626-.417 6.9 0 11.681.217 14.626.417 2.226.152 3.973 1.803 4.178 4.024.225 2.44.446 6.15.446 11.309 0 5.158-.221 8.869-.446 11.309-.205 2.221-1.952 3.872-4.178 4.024-2.945.2-7.725.417-14.626.417-6.9 0-11.681-.217-14.626-.417-2.226-.152-3.973-1.803-4.178-4.024-.225-2.44-.446-6.15-.446-11.309 0-5.158.221-8.869.446-11.309z"/><path fill="#fff" d="M5.27 19.82c.029-.755.518-1.33 1.27-1.395a15.6 15.6 0 011.335-.05c.55 0 .99.02 1.335.05.752.065 1.241.64 1.27 1.395A31 31 0 0110.5 21a31 31 0 01-.02 1.18c-.029.755-.518 1.33-1.27 1.395a15.6 15.6 0 01-1.335.05c-.55 0-.99-.02-1.335-.05-.752-.065-1.241-.64-1.27-1.395-.012-.312-.02-.7-.02-1.18s.008-.868.02-1.18zm0-8.75c.029-.755.518-1.33 1.27-1.395a15.6 15.6 0 011.335-.05c.55 0 .99.02 1.335.05.752.065 1.241.64 1.27 1.395a31 31 0 01.02 1.18 31 31 0 01-.02 1.18c-.029.755-.518 1.33-1.27 1.395a15.6 15.6 0 01-1.335.05c-.55 0-.99-.02-1.335-.05-.752-.065-1.241-.64-1.27-1.395-.012-.312-.02-.7-.02-1.18s.008-.868.02-1.18zm0 17.5c.029-.755.518-1.33 1.27-1.395a15.6 15.6 0 011.335-.05c.55 0 .99.02 1.335.05.752.065 1.241.64 1.27 1.395a31 31 0 01.02 1.18 31 31 0 01-.02 1.18c-.029.755-.518 1.33-1.27 1.395a15.6 15.6 0 01-1.335.05c-.55 0-.99-.02-1.335-.05-.752-.065-1.241-.64-1.27-1.395-.012-.312-.02-.7-.02-1.18s.008-.868.02-1.18zm31.46-8.75c-.029-.755-.518-1.33-1.27-1.395a15.76 15.76 0 00-1.335-.05c-.55 0-.99.02-1.335.05-.752.065-1.241.64-1.27 1.395A31 31 0 0031.5 21a31 31 0 00.02 1.18c.029.755.518 1.33 1.27 1.395.346.03.784.05 1.335.05.55 0 .99-.02 1.335-.05.752-.065 1.241-.64 1.27-1.395a31 31 0 00.02-1.18 31 31 0 00-.02-1.18zm0-8.75c-.029-.755-.518-1.33-1.27-1.395a15.76 15.76 0 00-1.335-.05c-.55 0-.99.02-1.335.05-.752.065-1.241.64-1.27 1.395a31 31 0 00-.02 1.18 31 31 0 00.02 1.18c.029.755.518 1.33 1.27 1.395.346.03.784.05 1.335.05.55 0 .99-.02 1.335-.05.752-.065 1.241-.64 1.27-1.395a31 31 0 00.02-1.18 31 31 0 00-.02-1.18zm0 17.5c-.029-.755-.518-1.33-1.27-1.395a15.76 15.76 0 00-1.335-.05c-.55 0-.99.02-1.335.05-.752.065-1.241.64-1.27 1.395a31 31 0 00-.02 1.18 31 31 0 00.02 1.18c.029.755.518 1.33 1.27 1.395.346.03.784.05 1.335.05.55 0 .99-.02 1.335-.05.752-.065 1.241-.64 1.27-1.395a31 31 0 00.02-1.18 31 31 0 00-.02-1.18zM16.024 17.325c.183-1.172 1.165-1.843 2.223-1.473.867.302 2.09.806 3.757 1.646a39.858 39.858 0 013.271 1.828c1.3.817 1.3 2.531 0 3.348a39.858 39.858 0 01-3.271 1.828c-1.667.84-2.89 1.344-3.757 1.647-1.058.369-2.04-.302-2.223-1.474A23.842 23.842 0 0115.75 21c0-1.5.128-2.744.274-3.675z"/></svg>