<svg xmlns="http://www.w3.org/2000/svg" fill="none" viewBox="0 0 42 42"><g fill-rule="evenodd" clip-rule="evenodd"><path fill="currentColor" d="M40.25 21c0-10.632-8.618-19.25-19.25-19.25S1.75 10.368 1.75 21c0 3.548.96 6.872 2.634 9.726a207.073 207.073 0 00-1.9 6.703 1.7 1.7 0 002.087 2.087 207.033 207.033 0 006.703-1.9A19.161 19.161 0 0021 40.25c10.632 0 19.25-8.618 19.25-19.25z"/><path fill="#f4f4f4" d="M18.963 16.903c.646-.646.683-1.678.114-2.394a32.81 32.81 0 01-2.103-2.942c-.692-1.101-2.393-1.419-3.313-.499l-.962.962c-1.686 1.686-2.786 3.947-2.12 6.236.63 2.158 2.025 5.066 5.084 8.124 3.059 3.059 5.966 4.454 8.124 5.083 2.29.667 4.55-.433 6.236-2.119l.962-.962c.92-.92.602-2.621-.5-3.313a32.81 32.81 0 01-2.941-2.103c-.716-.569-1.748-.532-2.394.114l-.96.96c-.311.311-.732.494-1.16.39-.718-.174-1.943-.67-3.345-2.072-1.403-1.402-1.898-2.627-2.072-3.345-.104-.428.079-.849.39-1.16l.96-.96z"/></g></svg>
