<svg xmlns="http://www.w3.org/2000/svg" fill="none" viewBox="0 0 42 42"><path fill="currentColor" d="M2.196 9.691C2.401 7.47 4.148 5.82 6.374 5.667c2.945-.2 7.725-.417 14.626-.417 6.9 0 11.681.217 14.626.417 2.226.152 3.973 1.803 4.178 4.024.225 2.44.446 6.15.446 11.309 0 5.158-.221 8.869-.446 11.309-.205 2.221-1.952 3.872-4.178 4.024-2.945.2-7.725.417-14.626.417-6.9 0-11.681-.217-14.626-.417-2.226-.152-3.973-1.803-4.178-4.024-.225-2.44-.446-6.15-.446-11.309 0-5.158.221-8.869.446-11.309z"/><path fill="#f4f4f4" d="M15.24 16.1c.244-1.562 1.554-2.457 2.964-1.965 1.157.404 2.787 1.076 5.01 2.196a53.174 53.174 0 014.36 2.436c1.734 1.09 1.734 3.376 0 4.466a53.174 53.174 0 01-4.36 2.436c-2.223 1.12-3.853 1.792-5.01 2.196-1.41.492-2.72-.403-2.964-1.965a31.798 31.798 0 01-.365-4.9c0-2 .17-3.659.365-4.9z"/></svg>
