<svg xmlns="http://www.w3.org/2000/svg" fill="none" viewBox="0 0 42 42"><path fill="currentColor" d="M2.259 35.609c.185 2.236 1.896 3.947 4.132 4.132 2.946.245 7.722.509 14.609.509s11.663-.264 14.609-.509c2.236-.185 3.947-1.896 4.132-4.132.245-2.946.509-7.722.509-14.609s-.264-11.663-.509-14.609c-.185-2.236-1.896-3.947-4.132-4.132C32.663 2.014 27.887 1.75 21 1.75s-11.663.264-14.609.509C4.155 2.444 2.444 4.155 2.26 6.39 2.014 9.337 1.75 14.113 1.75 21s.264 11.663.509 14.609z"/><path fill="#f4f4f4" d="M25.153 27.272c-.087.961-.78 1.686-1.74 1.784-1.234.126-3.344.257-6.788.257-1.703 0-3.08-.032-4.185-.08-2.57-.11-4.403-1.996-4.501-4.566A96.183 96.183 0 017.875 21c0-3.066.114-5.063.222-6.272.087-.96.78-1.686 1.74-1.784 1.234-.126 3.344-.257 6.788-.257 1.703 0 3.08.032 4.185.08 2.57.11 4.403 1.996 4.501 4.566.038 1.002.064 2.215.064 3.667 0 3.066-.114 5.063-.222 6.272zM27.224 18.94a2.54 2.54 0 01.825-1.604 16.628 16.628 0 013.893-2.638c.9-.439 1.862.127 1.962 1.123.113 1.128.221 2.82.221 5.179 0 2.36-.108 4.05-.221 5.179-.1.996-1.062 1.562-1.962 1.123a16.628 16.628 0 01-3.893-2.638 2.54 2.54 0 01-.825-1.604c-.052-.493-.099-1.18-.099-2.06 0-.88.047-1.567.1-2.06z"/></svg>
